<?xml version="1.0" encoding="iso-8859-1"?>
<!-- Generator: Adobe Illustrator 19.0.0, SVG Export Plug-In . SVG Version: 6.00 Build 0)  -->
<svg version="1.1" id="Capa_1" xmlns="http://www.w3.org/2000/svg" xmlns:xlink="http://www.w3.org/1999/xlink" x="0px" y="0px"
	 viewBox="0 0 512 512" style="enable-background:new 0 0 512 512;" xml:space="preserve">
<g>
	<circle style="fill:#303C42;" cx="256" cy="53.333" r="53.333"/>
	<path style="fill:#303C42;" d="M320,365.405V320h21.333c5.896,0,10.667-4.771,10.667-10.667V182.125
		c0-10.948-5.25-20.906-14.063-26.635C309.875,137.26,289.479,128,256,128s-53.875,9.26-81.938,27.5
		C165.25,161.219,160,171.177,160,182.125v127.208c0,5.896,4.771,10.667,10.667,10.667H192v45.405
		c-80.908,6.865-170.667,29.309-170.667,71.928c0,18.671,17.395,31.583,37.99,40.845l-8.573,2.145
		c-5.729,1.427-9.188,7.219-7.771,12.927c1.208,4.854,5.563,8.083,10.354,8.083c0.854,0,1.729-0.104,2.583-0.323l42.667-10.667
		c3.375-0.833,6.125-3.26,7.375-6.5c1.25-3.229,0.833-6.875-1.083-9.76l-21.333-32c-3.292-4.927-9.958-6.219-14.792-2.958
		c-4.896,3.271-6.229,9.885-2.958,14.792l3.647,5.471c-23.548-10.203-26.772-18.413-26.772-22.055
		c0-15.637,47.648-41.772,149.333-50.493v71.827c0,5.896,4.771,10.667,10.667,10.667h106.667c5.896,0,10.667-4.771,10.667-10.667
		V386.84c101.685,8.721,149.333,34.857,149.333,50.493c0,21.75-83.104,53.333-213.333,53.333c-5.896,0-10.667,4.771-10.667,10.667
		S250.104,512,256,512c116.604,0,234.667-25.646,234.667-74.667C490.667,394.714,400.908,372.27,320,365.405z"/>
</g>
<g>
	<circle style="fill:#1E88E5;" cx="256" cy="53.333" r="32"/>
	<path style="fill:#1E88E5;" d="M298.667,448h-85.333V309.333c0-5.896-4.771-10.667-10.667-10.667h-21.333V182.125
		c0-3.646,1.667-7,4.354-8.74c25.083-16.302,42-24.052,70.313-24.052s45.229,7.75,70.313,24.052c2.688,1.74,4.354,5.094,4.354,8.74
		v116.542h-21.333c-5.896,0-10.667,4.771-10.667,10.667V448z"/>
</g>
<path style="opacity:0.1;enable-background:new    ;" d="M326.313,173.385c-25.083-16.302-42-24.052-70.313-24.052
	c20.223,0,32.306,7.75,50.223,24.052c1.921,1.74,3.111,5.094,3.111,8.74v116.542h21.333V182.125
	C330.667,178.479,329,175.125,326.313,173.385z"/>
<path style="opacity:0.2;fill:#FFFFFF;enable-background:new    ;" d="M181.333,182.125v116.542h21.333V182.125
	c0-3.646,1.19-7,3.111-8.74c17.917-16.302,30-24.052,50.223-24.052c-28.313,0-45.229,7.75-70.313,24.052
	C183,175.125,181.333,178.479,181.333,182.125z"/>
<path style="opacity:0.1;enable-background:new    ;" d="M277.333,309.333V448h21.333V309.333c0-5.896,4.771-10.667,10.667-10.667
	H288C282.104,298.667,277.333,303.438,277.333,309.333z"/>
<path style="opacity:0.2;fill:#FFFFFF;enable-background:new    ;" d="M234.667,309.333V448h-21.333V309.333
	c0-5.896-4.771-10.667-10.667-10.667H224C229.896,298.667,234.667,303.438,234.667,309.333z"/>
<circle style="fill:#1E88E5;" cx="256" cy="53.333" r="32"/>
<path style="opacity:0.1;enable-background:new    ;" d="M277.076,29.444c0.069,0.858,0.258,1.681,0.258,2.556
	c0,17.646-14.354,32-32,32c-8.105,0-15.431-3.126-21.076-8.111c1.328,16.435,14.971,29.444,31.742,29.444c17.646,0,32-14.354,32-32
	C288,43.793,283.719,35.311,277.076,29.444z"/>
<linearGradient id="SVGID_1_" gradientUnits="userSpaceOnUse" x1="-41.3208" y1="635.7087" x2="-23.0049" y2="627.1673" gradientTransform="matrix(21.3333 0 0 -21.3333 996.3334 13791.667)">
	<stop  offset="0" style="stop-color:#FFFFFF;stop-opacity:0.2"/>
	<stop  offset="1" style="stop-color:#FFFFFF;stop-opacity:0"/>
</linearGradient>
<path style="fill:url(#SVGID_1_);" d="M256,106.667c29.417,0,53.333-23.927,53.333-53.333S285.417,0,256,0
	c-29.417,0-53.333,23.927-53.333,53.333S226.583,106.667,256,106.667z M320,365.405V320h21.333c5.896,0,10.667-4.771,10.667-10.667
	V182.125c0-10.948-5.25-20.906-14.063-26.635C309.875,137.26,289.479,128,256,128s-53.875,9.26-81.938,27.5
	C165.25,161.219,160,171.177,160,182.125v127.208c0,5.896,4.771,10.667,10.667,10.667H192v45.405
	c-80.908,6.865-170.667,29.309-170.667,71.928c0,18.671,17.395,31.583,37.99,40.845l-8.573,2.145
	c-5.729,1.427-9.188,7.219-7.771,12.927c1.208,4.854,5.563,8.083,10.354,8.083c0.854,0,1.729-0.104,2.583-0.323l42.667-10.667
	c3.375-0.833,6.125-3.26,7.375-6.5c1.25-3.229,0.833-6.875-1.083-9.76l-21.333-32c-3.292-4.927-9.958-6.219-14.792-2.958
	c-4.896,3.271-6.229,9.885-2.958,14.792l3.647,5.471c-23.548-10.203-26.772-18.413-26.772-22.055
	c0-15.637,47.648-41.772,149.333-50.493v71.827c0,5.896,4.771,10.667,10.667,10.667h106.667c5.896,0,10.667-4.771,10.667-10.667
	V386.84c101.685,8.721,149.333,34.857,149.333,50.493c0,21.75-83.104,53.333-213.333,53.333c-5.896,0-10.667,4.771-10.667,10.667
	S250.104,512,256,512c116.604,0,234.667-25.646,234.667-74.667C490.667,394.714,400.908,372.27,320,365.405z"/>
<g>
</g>
<g>
</g>
<g>
</g>
<g>
</g>
<g>
</g>
<g>
</g>
<g>
</g>
<g>
</g>
<g>
</g>
<g>
</g>
<g>
</g>
<g>
</g>
<g>
</g>
<g>
</g>
<g>
</g>
</svg>
